<?xml version="1.0" encoding="UTF-8" standalone="no" ?>
<!DOCTYPE svg PUBLIC "-//W3C//DTD SVG 1.1//EN" "http://www.w3.org/Graphics/SVG/1.1/DTD/svg11.dtd">
<svg xmlns="http://www.w3.org/2000/svg" xmlns:xlink="http://www.w3.org/1999/xlink" version="1.1" width="1280" height="1024" viewBox="0 0 1280 1024" xml:space="preserve">
<desc>Created with Fabric.js 4.4.0</desc>
<defs>
</defs>
<g transform="matrix(1 0 0 1 640 512)" id="background-logo"  >
<rect style="stroke: none; stroke-width: 0; stroke-dasharray: none; stroke-linecap: butt; stroke-dashoffset: 0; stroke-linejoin: miter; stroke-miterlimit: 4; fill: rgb(255,255,255); fill-opacity: 0; fill-rule: nonzero; opacity: 1;"  paint-order="stroke"  x="-640" y="-512" rx="0" ry="0" width="1280" height="1024" />
</g>
<g transform="matrix(1.9211538461538462 0 0 1.9211538461538462 640 421.33463796167644)" id="logo-logo"  >
<g style=""  paint-order="stroke"   >
		<g transform="matrix(1.3561898868153377 0 0 1.3561898868153377 0 0)"  >
<g style=""  paint-order="stroke"   >
		<g transform="matrix(1 0 0 1 0 0)"  >
<path style="stroke: none; stroke-width: 1; stroke-dasharray: none; stroke-linecap: butt; stroke-dashoffset: 0; stroke-linejoin: miter; stroke-miterlimit: 4; fill: rgb(117,255,138); fill-rule: nonzero; opacity: 1;"  paint-order="stroke"  transform=" translate(-95, -100)" d="M 190 94 L 95 0 L 0 94 L 6.11 100 L 0 106 L 95 200 L 190 106 L 183.89 100 Z M 2.83 94 L 95 2.8 L 187.17 94 L 182.48 98.64 L 95 12.09 L 7.52 98.6 Z M 181.06 100 L 95 185.12 L 8.94 100 L 95 14.88 Z M 187.17000000000002 106 L 95 197.2 L 2.83 106 L 7.5200000000000005 101.36 L 95 187.91 L 182.48000000000002 101.39999999999999 Z" stroke-linecap="round" />
</g>
</g>
</g>
</g>
</g>
<g transform="matrix(1.9211538461538462 0 0 1.9211538461538462 642.1156706730769 788.419707678424)" id="text-logo-path-group"  >
<g style=""  paint-order="stroke"   >
		<g transform="matrix(1 0 0 1 0 0)" id="text-logo-path-0"  >
<path style="stroke: none; stroke-width: 0; stroke-dasharray: none; stroke-linecap: butt; stroke-dashoffset: 0; stroke-linejoin: miter; stroke-miterlimit: 4; fill: rgb(117,250,137); fill-rule: nonzero; opacity: 1;"  paint-order="stroke"  transform=" translate(-110.78, 22.875)" d="M 12.94 -6.06 C 17.72 -1.5 23.44 0.78 30.09 0.78 C 32.56 0.78 35.13 0.53 37.75 0 C 40.34 -0.53 42.47 -1.25 44.09 -2.19 L 43.13 -4.34 C 39.47 -2.81 35.13 -2.06 30.09 -2.06 C 24.31 -2.06 19.38 -4.09 15.28 -8.19 C 11.16 -12.25 9.09 -17.19 9.09 -23 C 9.09 -28.78 10.88 -33.69 14.41 -37.72 C 17.94 -41.72 22.5 -43.72 28.09 -43.72 C 32.78 -43.72 37.69 -42.94 42.81 -41.41 L 43.66 -43.97 C 38.41 -45.69 33.22 -46.53 28.09 -46.53 C 21.56 -46.53 16.22 -44.25 12.03 -39.72 C 7.84 -35.19 5.75 -29.56 5.75 -22.91 C 5.75 -16.22 8.16 -10.59 12.94 -6.06 Z M 55.34 0 L 58.28 0 L 58.28 -21 L 87.16 -21 L 87.16 0 L 90.09 0 L 90.09 -41.53 L 87.16 -41.53 L 87.16 -23.63 L 58.28 -23.63 L 58.28 -41.53 L 55.34 -41.53 Z M 98.53 0 L 101.53 0 L 107.47 -14.41 L 125.91 -14.41 L 131.94 0 L 135.19 0 L 117.66 -41.78 L 115.94 -41.78 Z M 108.5 -16.91 L 114.91 -32.25 C 115.41 -33.53 115.97 -35.16 116.63 -37.06 C 116.91 -36.22 117.56 -34.59 118.56 -32.19 L 124.88 -16.91 Z M 133 -38.91 L 147.06 -38.91 L 147.06 0 L 149.94 0 L 149.94 -38.91 L 164.03 -38.91 L 164.03 -41.53 L 133 -41.53 Z M 172.72 0 L 175.66 0 L 175.66 -41.53 L 172.72 -41.53 Z M 186.78 0 L 215.81 0 L 215.81 -2.69 L 191.06 -2.69 L 215.5 -40.13 L 215.5 -41.53 L 188.38 -41.53 L 188.38 -38.97 L 211.22 -38.97 L 186.78 -1.47 Z" stroke-linecap="round" />
</g>
</g>
</g>
<g transform="matrix(1.9211538461538462 0 0 1.9211538461538462 644.2218481445312 412.5862897763792)" id="tagline-1e6586f8-d0fe-40a7-88e9-d3bbc2eb41fd-logo-path-group"  >
<g style=""  paint-order="stroke"   >
		<g transform="matrix(1 0 0 1 0 0)" id="tagline-1e6586f8-d0fe-40a7-88e9-d3bbc2eb41fd-logo-path-0"  >
<path style="stroke: none; stroke-width: 0; stroke-dasharray: none; stroke-linecap: butt; stroke-dashoffset: 0; stroke-linejoin: miter; stroke-miterlimit: 4; fill: rgb(255,255,255); fill-rule: nonzero; opacity: 1;"  paint-order="stroke"  transform=" translate(-50.62499999999999, 46.464999999999996)" d="M 26.28 -12.31 C 35.99 -3.05 47.61 1.59 61.13 1.59 C 66.14 1.59 71.35 1.08 76.68 0 C 81.95 -1.08 86.26 -2.54 89.57 -4.44 L 87.6 -8.82 C 80.17 -5.71 71.35 -4.19 61.13 -4.19 C 49.38 -4.19 39.36 -8.32 31.04 -16.63 C 22.66 -24.88 18.47 -34.91 18.47 -46.72 C 18.47 -58.46 22.09 -68.43 29.26 -76.62 C 36.44 -84.74 45.7 -88.8 57.07 -88.8 C 66.59 -88.8 76.55 -87.22 86.96 -84.11 L 88.68 -89.31 C 78.01 -92.8 67.48 -94.52 57.07 -94.52 C 43.8 -94.52 32.94 -89.88 24.44 -80.68 C 15.93 -71.47 11.68 -60.05 11.68 -46.53 C 11.68 -32.94 16.57 -21.52 26.28 -12.31 Z" stroke-linecap="round" />
</g>
</g>
</g>
</svg>